<?xml version="1.0" encoding="utf-8"?>
<!-- Generator: Adobe Illustrator 25.4.1, SVG Export Plug-In . SVG Version: 6.00 Build 0)  -->
<svg version="1.1" id="圖層_1" xmlns="http://www.w3.org/2000/svg" xmlns:xlink="http://www.w3.org/1999/xlink" x="0px" y="0px"
	 viewBox="0 0 253.12 243" style="enable-background:new 0 0 253.12 243;" xml:space="preserve">
<style type="text/css">
	.st0{fill:none;stroke:#2B2B2B;stroke-width:3;stroke-miterlimit:10;}
	.st1{fill:#2B2B2B;stroke:#2B2B2B;stroke-width:2;stroke-miterlimit:10;}
</style>
<g>
	<g>
		<polyline class="st0" points="72.65,43.38 71.83,38.48 86.88,36.68 87.69,41.42 		"/>
		<line class="st0" x1="79.76" y1="37.53" x2="82.46" y2="72.65"/>
		<polyline class="st0" points="73.63,69.11 76.41,73.36 87.69,72.55 90.47,67.48 		"/>
		<polyline class="st0" points="209.86,82.06 213.82,79.05 222.42,91.52 218.61,94.46 		"/>
		<line class="st0" x1="218.36" y1="85.63" x2="188.54" y2="104.38"/>
		<polyline class="st0" points="187.55,94.92 185.08,99.36 191.06,108.96 196.84,109.06 		"/>
		<path class="st0" d="M115.49,61.04l-10.63,6.44l7.03-34.07c0,0,1.8-1.8,3.6,1.14c1.8,2.94,12.43,29.92,12.43,29.92"/>
		<polyline class="st0" points="151.13,55.09 159.8,58.1 155.47,69.21 		"/>
		<path class="st0" d="M163.56,46.49c0,0,2.13-8.67-8.09-12.92s-17.09,8.5-17.58,14.55c-0.49,6.05,4.3,20.56,18.25,19.36"/>
		<polyline class="st0" points="181.62,69.47 189.58,74.02 183.28,84.15 		"/>
		<path class="st0" d="M195.42,63.31c0,0,3.69-8.13-5.58-14.19s-18.36,5.21-19.96,11.07c-1.6,5.86,0.44,21,14.38,22.39"/>
		
			<ellipse transform="matrix(0.9702 -0.2423 0.2423 0.9702 -25.1885 56.0739)" class="st0" cx="215.41" cy="130.46" rx="12.24" ry="10.68"/>
		
			<ellipse transform="matrix(0.9702 -0.2423 0.2423 0.9702 -25.1885 56.0739)" class="st0" cx="215.41" cy="130.46" rx="19.4" ry="16.92"/>
	</g>
	<g>
		<g>
			<path class="st1" d="M50.87,118.9c0-0.03,0-0.05,0-0.08c-1.76,1.63-4.32,2.44-6.75,2.13c-4.16-0.52-8.48-1.86-12.01-4.04
				c-4.26-2.62-4.16-6.54-2.26-10.58c1.98-4.23,4.5-8.33,8.21-11.4c1.97-1.63,3.94-3.27,5.8-5.01c0.43-0.4,0.4-1.23,0.55-1.74
				c1.9,2.03,1.96,2,4.32-2.33c0.05,0.57,0.11,0.95,0.12,1.33c0.04,1.8,0.04,1.64,2.01,1.67c7.16,0.09,13.01,1.51,18.48,6.08
				c0.79,0.66,1.57,1.37,2.09,2.24c1.23,2.1,1.45,5.89,1.25,8.26c-0.13,1.51-0.96,2.97-1.49,4.45c-1.96,5.4-3.53,10.97-4.06,16.67
				c-0.54,5.77,0.44,11.38,1.03,17.11c0.77,7.49,1.37,15.43,3.33,22.71c0.15,0.55,0.47,1.06,0.76,1.56
				c0.15,0.27,0.52,0.45,0.59,0.72c0.74,2.95,2.14,5.63,3.99,8.06c0.77,1,1.92,1.77,2.97,2.54c2,1.47,3.93,3.08,6.12,4.23
				c3.06,1.62,6.3,2.98,9.86,3.4c1.59,0.19,3.48-0.14,4.98-0.66c0.72-0.25,1.4-0.89,2.06-1.1c2.21-0.72,5.02,1.96,6.79,2.91
				c0.17,0.09,0.35,0.17,0.48,0.3c1.82,1.73,3.67,3.43,5.41,5.23c1.77,1.83,3.11,2.98,5.62,3.95c5.29,2.04,10.83,3.77,16.56,4.07
				c5.67,0.3,11.5-0.43,17.13-1.02c11.13-1.17,21.72-5.33,31.81-9.67c1.62-0.7,3.36-1.17,5.07-1.65c0.4-0.11,0.97,0.08,1.37,0.28
				c3.64,1.8,7.27,3.6,10.86,5.48c0.54,0.28,0.89,0.92,1.59,1.69c-2.08,1.18-3.94,2.33-5.88,3.33c-10.91,5.61-22.25,8.12-34.4,10.07
				c-10.8,1.73-21.73,3.48-32.73,2.98c-13.23-0.6-26.17-3.15-39.23-5.02c-5.08-0.73-10.18-1.31-15.3-1.74
				c-3.39-0.29-8.87-1.76-11.69,0.62c-1.28,1.09-3.07,1.63-4.39,2.68c-1.38,1.1-2.89,1.53-4.56,1.48c-1.7-0.05-3.64,0.13-5.04-0.58
				c-2.46-1.23-2.87-4.93-0.86-6.86c1.03-0.98,2.04-1.98,3.07-2.97c1.16-1.11,1.54-2.24,1.29-3.95c-0.53-3.54-2.3-6.64-3.25-10
				c-3.2-11.27-4.93-22.92-5.3-34.59c-0.19-5.78-0.04-11.56,0.44-17.32c0.22-2.71,0.6-5.08,1.39-7.65
				C49.9,124.5,50.69,121.72,50.87,118.9z"/>
			<path class="st1" d="M152.76,125.5c0.12,1.31,0.32,2.58,0.37,3.38c0.2,2.75,1.23,5.42,1.06,8.2c-0.18,2.76-3.49,3.12-5.67,3.55
				c-2.82,0.55-5.54,1.56-8.32,2.28c-5.59,1.46-11.27,1.61-15.21-3.08c-2.31-2.74-4.57-5.54-6.65-8.45
				c-1.57-2.19-3.04-4.44-4.34-6.79c-1.1-1.98-1.79-4.62-3.55-6.17c-1.46-1.29-3.46-1.55-5.27-2.11c-2.49-0.77-4.98-1.56-7.36-2.62
				c-3.53-1.57-2.87-3.59-1.54-6.71c2.68-6.29,9.15-10.17,15.26-13.08c9.27-4.42,19.83-8.7,30.43-7.99
				c5.21,0.35,9.83,2.48,14.4,4.72c12.24,5.99,21.12,17.79,24.74,30.3c0.99,3.43,2.35,6.09-1.76,7.84
				c-5.36,2.28-15.51,8.79-19.82,1.36c-1.67-2.87-3.42-5.7-5.18-8.53c-0.19-0.31-0.63-0.57-0.95-0.75
				C152.61,121.75,152.6,123.67,152.76,125.5z"/>
			<path class="st1" d="M124.38,149.35c0.11-0.39,1.11-0.49,1.48-0.6c1.19-0.33,2.4-0.63,3.6-0.9c7.78-1.74,15.85-2.03,23.44-4.59
				c3.17-1.07,3.92,1.69,4.83,4.05c0.89,2.3,1.66,4.93,3.83,6.48c2.8,2,4.18-2.68,4.62-4.79c0.44-2.17,0.02-4.54,0.88-6.63
				c1.08-2.63,4.28-2.67,6.79-3.49c1.39-0.45,5.15-1.63,6.56-1.05c1.21,0.49,1.37,3.14,1.72,4.46c1.12,4.17,1.78,8.45,1.96,12.75
				c0.25,5.86-0.11,11.83-1.63,17.54c-1.57,5.92-4.32,10.32-8.92,14.54c-1.46,1.34-2.92,2.69-4.59,3.79
				c-7.09,4.69-17.58,6.02-26.03,5.08c-7.95-0.89-10.37-9.19-12.2-15.51c-2.82-9.75-4.99-18.24-6.36-29.62
				c-0.04-0.34-0.05-1.22,0-1.48C124.37,149.36,124.37,149.36,124.38,149.35z"/>
			<path class="st1" d="M109.45,180.93c-0.24-0.11-0.52-0.06-0.79-0.02c-4.63,0.65-7.04-3.25-8.38-6.71
				c-1.92-4.97-2.96-10.11-4.15-15.25c-2.37-10.26-5.1-20.54-5.07-31.11c0-0.87,0.03-1.76,0.33-2.58c1.73-4.64,10.6-2.52,13.82-0.96
				c6.53,3.15,8.35,12.49,10.21,18.63c2.1,6.91,3.55,13.99,5.46,20.93c1.88,6.85,2.62,13.95,4.78,20.74
				c0.37,1.17,0.79,2.36,0.68,3.57c-0.15,1.66-1.45,2.8-3.13,3.1c-0.61,0.11-1.24,0.03-1.85-0.06c-1.24-0.18-2.47-0.4-3.69-0.65
				c-1.21-0.25-2.43-0.55-3.46-1.2c-2.54-1.6-3.61-4.94-4.29-7.62c-0.07-0.3-0.17-0.63-0.44-0.78
				C109.47,180.94,109.46,180.93,109.45,180.93z"/>
			<path class="st1" d="M34.59,65.19c-2.07-0.17-3.36-0.81-4.46-2.44c-0.66-0.98-1.13-1.55-0.48-2.54c0.68-1.05,2.28-1.64,3.57-1.41
				c1.42,0.25,2,1.24,2,2.39C35.22,62.48,34.83,63.78,34.59,65.19z"/>
			<path class="st1" d="M48.52,58.29c-1.65-1.19-2.38-2.4-2.39-4.33c-0.01-1.17-0.08-1.88,1.02-2.39c1.16-0.54,2.85-0.22,3.81,0.62
				c1.06,0.93,0.99,2.07,0.35,3.03C50.57,56.32,49.51,57.22,48.52,58.29z"/>
		</g>
		<line class="st1" x1="33.88" y1="63.64" x2="45.12" y2="89.47"/>
		<line class="st1" x1="48.52" y1="58.29" x2="48.85" y2="87.18"/>
	</g>
</g>
</svg>
